<svg width="32" height="32" viewBox="0 0 32 32" fill="none" xmlns="http://www.w3.org/2000/svg">
<path d="M16.0001 13.8489C17.3595 13.8489 18.4845 14.9739 18.4845 16.3333C18.4845 17.7395 17.3595 18.8645 16.0001 18.8645C14.5938 18.8645 13.4688 17.7395 13.4688 16.3333C13.4688 14.9739 14.5938 13.8489 16.0001 13.8489ZM21.8126 11.927C22.2345 12.9114 22.1407 15.2551 22.1407 16.3333C22.1407 17.4583 22.2345 19.802 21.8126 20.7864C21.5782 21.4426 21.0626 21.9583 20.4063 22.1926C19.422 22.6145 17.0782 22.5208 16.0001 22.5208C14.8751 22.5208 12.5313 22.6145 11.547 22.1926C10.8907 21.9583 10.3751 21.4426 10.1407 20.7864C9.76571 19.802 9.81258 17.4583 9.81258 16.3333C9.81258 15.2551 9.76571 12.9114 10.1407 11.927C10.3751 11.2708 10.8907 10.7551 11.547 10.5208C12.5313 10.0989 14.8751 10.1926 16.0001 10.1926C17.0782 10.1926 19.422 10.0989 20.4063 10.5208C21.0626 10.7551 21.5782 11.2708 21.8126 11.927ZM16.0001 20.177V20.2239C18.1095 20.2239 19.8438 18.4895 19.8438 16.3801V16.3333C19.8438 14.2239 18.1095 12.4895 16.0001 12.4895C13.8438 12.4895 12.1563 14.2239 12.1563 16.3333C12.1563 18.4895 13.8438 20.177 16.0001 20.177ZM19.9845 13.2395C20.4532 13.2395 20.8751 12.8645 20.8751 12.3489C20.8751 11.8333 20.4532 11.4583 19.9845 11.4583C19.4688 11.4583 19.0938 11.8333 19.0938 12.3489C19.0938 12.8645 19.4688 13.2395 19.9845 13.2395ZM24.2501 5.83325C25.4688 5.83325 26.5001 6.8645 26.5001 8.08325V24.5833C26.5001 25.8489 25.4688 26.8333 24.2501 26.8333H7.75008C6.48446 26.8333 5.50008 25.8489 5.50008 24.5833V8.08325C5.50008 6.8645 6.48446 5.83325 7.75008 5.83325H24.2501ZM23.4063 19.427C23.5001 18.2083 23.5001 14.5051 23.4063 13.2864C23.3595 12.0676 23.0782 10.9895 22.2345 10.1458C21.3438 9.25513 20.2657 8.97388 19.0938 8.927C17.8282 8.83325 14.1251 8.83325 12.9063 8.927C11.6876 8.97388 10.6095 9.25513 9.76571 10.0989C8.87508 10.9895 8.59383 12.0676 8.54696 13.2395C8.45321 14.5051 8.45321 18.2083 8.54696 19.427C8.59383 20.6458 8.87508 21.7239 9.76571 22.5676C10.6095 23.4583 11.6876 23.7395 12.9063 23.7864C14.1251 23.8801 17.8282 23.8801 19.0938 23.7864C20.2657 23.7395 21.3438 23.4583 22.2345 22.5676C23.0782 21.7239 23.3595 20.6458 23.4063 19.427Z" fill="#205066"/>
</svg>
