<svg width="32" height="32" viewBox="0 0 32 32" fill="none" xmlns="http://www.w3.org/2000/svg">
<path d="M25.6667 5.5C26.4636 5.5 27.1667 6.20312 27.1667 7.04688V25C27.1667 25.8438 26.4636 26.5 25.6667 26.5H7.61987C6.823 26.5 6.16675 25.8438 6.16675 25V7.04688C6.16675 6.20312 6.823 5.5 7.61987 5.5H25.6667ZM12.4949 23.5V13.5156H9.40112V23.5H12.4949ZM10.948 12.1094C11.9324 12.1094 12.7292 11.3125 12.7292 10.3281C12.7292 9.34375 11.9324 8.5 10.948 8.5C9.91675 8.5 9.11987 9.34375 9.11987 10.3281C9.11987 11.3125 9.91675 12.1094 10.948 12.1094ZM24.1667 23.5V18.0156C24.1667 15.3438 23.5574 13.2344 20.4167 13.2344C18.9167 13.2344 17.8855 14.0781 17.4636 14.875H17.4167V13.5156H14.4636V23.5H17.5574V18.5781C17.5574 17.2656 17.7917 16 19.4324 16C21.0261 16 21.0261 17.5 21.0261 18.625V23.5H24.1667Z" fill="#205066"/>
</svg>
