<svg width="32" height="32" viewBox="0 0 32 32" fill="none" xmlns="http://www.w3.org/2000/svg">
<path d="M16.0001 10.0989C17.6407 10.0989 19.1876 10.7551 20.3595 11.927C21.5313 13.0989 22.2345 14.6458 22.2345 16.2864C22.2345 19.7083 19.3751 22.4739 16.0001 22.4739H15.9532C14.8751 22.4739 13.797 22.1926 12.8126 21.6301L12.6251 21.4895L10.2813 22.0989L10.8907 19.802L10.7501 19.5676C10.1407 18.5833 9.81258 17.4583 9.81258 16.2864C9.81258 12.8645 12.5782 10.0989 16.0001 10.0989ZM19.6095 18.9583C19.7501 18.4895 19.7501 18.1145 19.7032 18.0676C19.6563 17.9739 19.5626 17.927 19.3751 17.8333C19.1876 17.7395 18.2501 17.2708 18.1095 17.2239C17.922 17.177 17.7813 17.1301 17.6876 17.3176C17.547 17.5051 17.2188 17.927 17.0782 18.0676C16.9845 18.1614 16.8907 18.2083 16.7032 18.1145C15.5782 17.552 14.8751 17.1301 14.172 15.8645C13.9845 15.5364 14.3595 15.5833 14.6876 14.8801C14.7813 14.7395 14.7345 14.6458 14.6876 14.552C14.6407 14.4583 14.2657 13.5208 14.1251 13.1926C13.9845 12.8176 13.797 12.8645 13.7032 12.8645C13.6095 12.8645 13.4688 12.8645 13.3282 12.8645C13.2345 12.8645 13.0001 12.9114 12.8595 13.0989C12.672 13.2864 12.2032 13.7083 12.2032 14.6458C12.2032 15.5364 12.8595 16.427 12.9532 16.5676C13.047 16.6614 14.2657 18.5364 16.1407 19.3801C17.3126 19.8489 17.7813 19.8958 18.3438 19.802C18.7188 19.7551 19.4688 19.3801 19.6095 18.9583ZM24.2501 5.83325C25.4688 5.83325 26.5001 6.8645 26.5001 8.08325V24.5833C26.5001 25.8489 25.4688 26.8333 24.2501 26.8333H7.75008C6.48446 26.8333 5.50008 25.8489 5.50008 24.5833V8.08325C5.50008 6.8645 6.48446 5.83325 7.75008 5.83325H24.2501ZM15.9532 23.7395C20.0782 23.7395 23.5001 20.4114 23.5001 16.2864C23.5001 14.3176 22.6563 12.4426 21.2501 11.0364C19.8438 9.63013 17.9688 8.83325 15.9532 8.83325C11.8751 8.83325 8.54696 12.2083 8.54696 16.2864C8.54696 17.5989 8.87508 18.8645 9.53133 19.9895L8.50008 23.8333L12.4376 22.802C13.5157 23.4114 14.7345 23.7395 15.9532 23.7395Z" fill="#205066"/>
</svg>
